<svg width="133" height="59" viewBox="0 0 133 59" fill="none" xmlns="http://www.w3.org/2000/svg">
<path d="M27.5771 32.0627C25.125 32.2836 22.6742 32.5272 20.2252 32.7923C20.2252 28.8304 20.2252 24.8679 20.2252 20.9059C16.0143 21.3621 11.8087 21.8839 7.60978 22.4713C7.60978 26.4333 7.60978 30.3958 7.60978 34.3577C5.15298 34.701 2.69856 35.067 0.247131 35.4557C0.247131 25.438 0.247131 15.4204 0.247131 5.40269C2.69916 5.01462 5.15298 4.64863 7.60978 4.30474C7.60978 8.20697 7.60978 12.1098 7.60978 16.012C11.8087 15.4251 16.0143 14.9033 20.2252 14.4466C20.2252 10.5444 20.2252 6.64154 20.2252 2.73931C22.6742 2.47363 25.125 2.23064 27.5771 2.00974C27.5771 12.0274 27.5771 22.0451 27.5771 32.0627Z" fill="#2776F7"/>
<path d="M86.7433 31.0114C83.7169 27.4076 80.6893 23.8374 77.6612 20.3011C76.9417 20.2778 76.2217 20.2564 75.5023 20.2372C75.5023 23.6762 75.5023 27.1151 75.5023 30.554C73.0282 30.4872 70.5541 30.443 68.0793 30.4209C68.0793 20.4032 68.0793 10.3856 68.0793 0.367889C73.1637 0.413264 78.2469 0.55297 83.3276 0.787008C89.8467 1.0903 94.1567 5.38299 94.1567 11.253C94.1567 16.1905 91.104 19.4939 86.2495 20.3095C89.3959 24.0356 92.5405 27.7975 95.6833 31.5965C92.7047 31.3684 89.7243 31.1738 86.7433 31.0114ZM82.5175 14.2961C85.1701 14.4138 86.8776 13.0776 86.8776 10.8787C86.8776 8.72699 85.1701 7.19261 82.5175 7.07499C80.1795 6.9717 77.8409 6.88872 75.5017 6.82543C75.5017 9.23268 75.5017 11.6399 75.5017 14.0472C77.8409 14.1099 80.1795 14.1929 82.5175 14.2961Z" fill="#2776F7"/>
<path d="M120.767 34.2897C120.067 32.3684 119.367 30.4495 118.667 28.5319C114.465 27.9718 110.257 27.4769 106.044 27.047C105.342 28.7993 104.64 30.554 103.937 32.3099C101.292 32.0538 98.6445 31.8239 95.9961 31.6197C100.186 21.9251 104.372 12.2955 108.554 2.72977C111.077 3.00261 113.599 3.29934 116.119 3.61875C120.293 14.1666 124.461 24.7783 128.622 35.4551C126.006 35.0419 123.388 34.6527 120.767 34.2897ZM112.36 11.5026C111.092 14.643 109.823 17.7888 108.554 20.9412C111.108 21.2176 113.659 21.5173 116.208 21.8421C114.926 18.3894 113.643 14.9433 112.36 11.5026Z" fill="#2776F7"/>
<path fill-rule="evenodd" clip-rule="evenodd" d="M47.8351 31.4125C56.8294 31.0454 63.8953 24.1765 63.8947 15.4227C63.8953 6.63794 56.8288 -0.353348 47.8351 0.0138289C38.8407 0.374439 31.7945 7.93769 31.7945 16.7225C31.7945 25.4756 38.8407 31.7732 47.8351 31.4125Z" fill="url(#paint0_linear)"/>
<path fill-rule="evenodd" clip-rule="evenodd" d="M47.8351 31.4125C56.8294 31.0454 63.8953 24.1765 63.8947 15.4227C63.8953 6.63794 56.8288 -0.353348 47.8351 0.0138289C38.8407 0.374439 31.7945 7.93769 31.7945 16.7225C31.7945 25.4756 38.8407 31.7732 47.8351 31.4125Z" fill="url(#paint1_linear)"/>
<path d="M47.8197 4.10889C47.5726 4.10889 47.3726 3.90829 47.3726 3.66171V0.977438C47.3726 0.730265 47.5732 0.530258 47.8197 0.530258C48.0669 0.530258 48.2669 0.730862 48.2669 0.977438V3.66171C48.2675 3.90829 48.0669 4.10889 47.8197 4.10889Z" fill="white"/>
<path fill-rule="evenodd" clip-rule="evenodd" d="M47.8198 0.828771C47.7378 0.828771 47.6711 0.895386 47.6711 0.977433V3.66171C47.6711 3.74368 47.7377 3.81037 47.8198 3.81037C47.9025 3.81037 47.9687 3.74318 47.9685 3.66243L47.9685 3.66171V0.977433C47.9685 0.895464 47.9018 0.828771 47.8198 0.828771ZM47.0741 0.977433C47.0741 0.565133 47.4086 0.231735 47.8198 0.231735C48.2321 0.231735 48.5655 0.566249 48.5655 0.977433V3.66141C48.5663 4.07362 48.2313 4.40741 47.8198 4.40741C47.4075 4.40741 47.0741 4.07289 47.0741 3.66171V0.977433Z" fill="#5E5CE6"/>
<path d="M41.26 4.94411C41.1006 4.94411 40.9531 4.85933 40.8737 4.72142L39.9823 3.17748C39.8605 2.96374 39.9358 2.6909 40.1495 2.5697C40.3615 2.4491 40.6307 2.52134 40.7543 2.73209L41.6457 4.27603C41.7687 4.48917 41.6958 4.76202 41.4827 4.88501C41.4146 4.92381 41.3382 4.94411 41.26 4.94411Z" fill="white"/>
<path fill-rule="evenodd" clip-rule="evenodd" d="M40.4965 2.88247C40.4552 2.81278 40.3667 2.78967 40.2972 2.82917L40.2969 2.82939C40.2269 2.86906 40.2019 2.959 40.2415 3.02916L41.1325 4.57248C41.1583 4.61723 41.2068 4.6456 41.2601 4.6456C41.2861 4.6456 41.3113 4.63902 41.3343 4.62607C41.4037 4.58551 41.4279 4.49576 41.3873 4.4253C41.3873 4.42528 41.3872 4.42526 41.3872 4.42524L40.4965 2.88247ZM40.002 2.31026C40.3562 2.10867 40.8059 2.22978 41.0119 2.5811L41.0124 2.58197L41.9044 4.12684C42.1095 4.48243 41.9883 4.93798 41.632 5.14358L41.6313 5.14396L41.6307 5.14434C41.5177 5.20876 41.3903 5.24264 41.2601 5.24264C40.9947 5.24264 40.7482 5.10151 40.6152 4.8705C40.6152 4.87046 40.6151 4.87042 40.6151 4.87038L39.7235 3.32602L39.7231 3.32529C39.5195 2.96805 39.645 2.51265 40.0024 2.31004L40.1496 2.56971L40.002 2.31026Z" fill="#5E5CE6"/>
<path d="M36.5046 9.69953C36.4264 9.69953 36.3494 9.67923 36.2819 9.63983L34.738 8.74845C34.526 8.62427 34.4544 8.35083 34.5785 8.13888C34.7021 7.92872 34.9714 7.85648 35.1833 7.97649L36.7273 8.86786C36.9404 8.99085 37.0133 9.2637 36.8903 9.47684C36.8109 9.61475 36.6634 9.69953 36.5046 9.69953Z" fill="white"/>
<path fill-rule="evenodd" clip-rule="evenodd" d="M34.8362 8.29C34.7958 8.35922 34.819 8.44942 34.8884 8.49054L36.432 9.38168L36.4326 9.38206C36.4532 9.39406 36.478 9.40102 36.5048 9.40102C36.5573 9.40102 36.6059 9.37284 36.6317 9.32789L36.6319 9.32764C36.6727 9.25695 36.6482 9.16681 36.5783 9.12642L35.0356 8.23581C34.9658 8.19683 34.8771 8.22061 34.8362 8.29ZM34.3214 7.98756C34.5275 7.63706 34.9767 7.51635 35.3306 7.71672L35.3317 7.71734L36.8766 8.6093C36.8767 8.60931 36.8767 8.60933 36.8767 8.60934C37.233 8.81495 37.3542 9.27047 37.149 9.62604C37.016 9.85677 36.7698 9.99805 36.5048 9.99805C36.3753 9.99805 36.2464 9.96455 36.1322 9.89802L34.588 9.0065L34.5872 9.00602C34.2333 8.79864 34.1135 8.34243 34.3212 7.98797L34.3214 7.98756Z" fill="#5E5CE6"/>
<path d="M34.9608 23.7102C34.7149 23.7102 34.5154 23.5108 34.5154 23.2648C34.5154 23.106 34.6002 22.9591 34.7381 22.8791L36.2803 21.9889C36.4922 21.8647 36.7651 21.9358 36.8893 22.1477C37.0134 22.3597 36.9424 22.6325 36.7305 22.7567C36.7287 22.7573 36.7269 22.7591 36.7251 22.7597L35.1829 23.6499C35.1155 23.6899 35.039 23.7102 34.9608 23.7102Z" fill="white"/>
<path fill-rule="evenodd" clip-rule="evenodd" d="M36.6316 22.2986C36.5909 22.2291 36.501 22.2055 36.4311 22.2465L36.4303 22.247L34.8879 23.1373C34.8878 23.1373 34.8877 23.1374 34.8877 23.1374C34.8415 23.1643 34.8139 23.2129 34.8139 23.2648C34.8139 23.3459 34.8797 23.4116 34.9608 23.4116C34.987 23.4116 35.0106 23.4049 35.0306 23.3931L35.0321 23.3922L36.5769 22.5005C36.5775 22.5001 36.5781 22.4998 36.5788 22.4994C36.58 22.4987 36.5814 22.4979 36.5828 22.4971L36.5836 22.4966C36.6499 22.4548 36.6718 22.3671 36.6316 22.2986ZM36.1302 21.7308C36.4841 21.5241 36.9393 21.6427 37.1468 21.9968C37.3542 22.3508 37.2357 22.8066 36.8813 23.0143L36.8544 23.03L36.853 23.0305L35.3334 23.9076C35.2189 23.9751 35.0903 24.0087 34.9608 24.0087C34.5499 24.0087 34.2169 23.6756 34.2169 23.2648C34.2169 22.999 34.3587 22.754 34.5883 22.6209L34.5888 22.6205L36.1302 21.7308Z" fill="#366FF3"/>
<path d="M40.368 29.1182C40.1226 29.1176 39.9232 28.9182 39.9232 28.6728C39.9232 28.5952 39.9435 28.5181 39.9829 28.4507L40.8731 26.9091C40.9949 26.6954 41.2659 26.6208 41.4803 26.742C41.6946 26.8638 41.7687 27.1348 41.6475 27.3491C41.6469 27.3509 41.6457 27.3527 41.6445 27.3539L40.7543 28.8955C40.6743 29.034 40.5274 29.1182 40.368 29.1182Z" fill="white"/>
<path fill-rule="evenodd" clip-rule="evenodd" d="M41.3332 27.0016C41.2619 26.9615 41.1728 26.9864 41.1326 27.0569L41.1322 27.0576L40.2412 28.6006L40.2408 28.6012C40.2287 28.6219 40.2219 28.6468 40.2219 28.6728C40.2219 28.753 40.2874 28.8192 40.3685 28.8196C40.4217 28.8195 40.4696 28.7917 40.4959 28.7462C40.4959 28.7462 40.4959 28.7462 40.4959 28.7462L41.3909 27.1962C41.4269 27.1255 41.4014 27.0406 41.3332 27.0016ZM40.6143 26.7605C40.8179 26.4043 41.2703 26.2802 41.6273 26.4821L41.6279 26.4824C41.9829 26.6841 42.1069 27.131 41.9128 27.4863C41.9078 27.4961 41.9024 27.5055 41.8967 27.5143L41.0129 29.0447C40.8793 29.2761 40.6336 29.4167 40.3681 29.4167L40.3674 29.4167C39.9579 29.4157 39.6248 29.0831 39.6248 28.6728C39.6248 28.5437 39.6584 28.4148 39.7248 28.3008L40.6143 26.7605Z" fill="#167FFD"/>
<path d="M55.2707 29.1181C55.1113 29.1181 54.9638 29.0333 54.8838 28.8948L53.9919 27.3497C53.8701 27.1354 53.9453 26.8631 54.159 26.7413C54.3716 26.6207 54.6408 26.693 54.7644 26.9037L55.6564 28.4488C55.7794 28.662 55.7065 28.9348 55.4934 29.0578C55.4253 29.0978 55.3483 29.1181 55.2707 29.1181Z" fill="white"/>
<path fill-rule="evenodd" clip-rule="evenodd" d="M54.3065 27.0008C54.236 27.0411 54.2113 27.1309 54.251 27.2015L55.1423 28.7455C55.1688 28.7915 55.2176 28.8196 55.2706 28.8196C55.2963 28.8196 55.3209 28.8129 55.3421 28.8004L55.3431 28.7998L55.3441 28.7992C55.4141 28.7589 55.4386 28.6687 55.3978 28.5981L54.5065 27.054C54.4653 26.9847 54.3769 26.961 54.3065 27.0008ZM54.0116 26.4817C54.3661 26.2805 54.8157 26.4011 55.0219 26.7527L55.0224 26.7536L55.9149 28.2996C56.1199 28.6548 55.999 29.1099 55.6435 29.3158C55.5288 29.3829 55.3998 29.4166 55.2706 29.4166C55.0048 29.4166 54.7587 29.2752 54.6253 29.0441L53.7328 27.498L53.7323 27.4972C53.5289 27.1393 53.6546 26.6851 54.0112 26.4819L54.0116 26.4817Z" fill="#167FFD"/>
<path d="M60.6775 23.7101C60.5987 23.7101 60.5223 23.6898 60.4542 23.6504L58.9079 22.7573C58.6954 22.6325 58.6237 22.359 58.7485 22.1465C58.8721 21.9357 59.1419 21.8635 59.3545 21.9841L60.9008 22.8773C61.114 23.0003 61.1874 23.2737 61.0644 23.4868C60.9844 23.6248 60.8369 23.7101 60.6775 23.7101Z" fill="white"/>
<path fill-rule="evenodd" clip-rule="evenodd" d="M59.2064 22.2434C59.1357 22.2038 59.0467 22.228 59.0059 22.2976L59.0059 22.2977C58.965 22.3673 58.9879 22.4577 59.0583 22.4995L60.6037 23.3921C60.6258 23.4049 60.6505 23.4117 60.6775 23.4117C60.7298 23.4117 60.779 23.3836 60.8059 23.3374C60.8462 23.2672 60.8219 23.1765 60.7516 23.1359L59.2064 22.2434ZM58.491 21.9954C58.6973 21.6438 59.1475 21.5235 59.5017 21.7245L59.5027 21.7251L61.05 22.6188C61.05 22.6188 61.05 22.6188 61.05 22.6188C61.05 22.6188 61.05 22.6188 61.0501 22.6188C61.4058 22.8242 61.5283 23.2801 61.3229 23.6361L61.3226 23.6367C61.1894 23.8662 60.9439 24.0087 60.6775 24.0087C60.5468 24.0087 60.4187 23.9749 60.3046 23.9089C60.3046 23.9089 60.3047 23.9089 60.3046 23.9089L58.7576 23.0153L58.7567 23.0148C58.4026 22.8068 58.2825 22.3508 58.4909 21.9956" fill="#396EF2"/>
<path d="M59.1346 9.69951C58.8886 9.69951 58.6886 9.5001 58.6886 9.25353C58.6886 9.09412 58.774 8.94725 58.9113 8.86724L60.4552 7.97587C60.669 7.85407 60.9418 7.9293 61.063 8.14304C61.1836 8.35499 61.1114 8.62425 60.9006 8.74784L59.3567 9.63921C59.2898 9.67921 59.2134 9.69951 59.1346 9.69951Z" fill="white"/>
<path fill-rule="evenodd" clip-rule="evenodd" d="M60.6038 8.23493L59.0617 9.12518C59.0616 9.12526 59.0615 9.12533 59.0614 9.1254C59.0151 9.15251 58.9873 9.20155 58.9873 9.25353C58.9873 9.33497 59.0534 9.401 59.1348 9.401C59.162 9.401 59.1851 9.3941 59.2036 9.38304L59.2056 9.38185L60.7504 8.48995C60.8201 8.44863 60.8432 8.3601 60.8037 8.29068L60.8035 8.29029C60.7638 8.22031 60.6739 8.19534 60.6038 8.23493ZM61.3229 7.9958C61.1203 7.63848 60.6649 7.51294 60.3076 7.71651L60.3069 7.71693L58.7617 8.60902L58.7612 8.60931C58.533 8.74225 58.3903 8.98682 58.3903 9.25353C58.3903 9.66524 58.7242 9.99803 59.1348 9.99803C59.2643 9.99803 59.3932 9.96477 59.5079 9.89674L61.0509 9.00586L61.0518 9.00535C61.403 8.79941 61.5241 8.35 61.3229 7.9958Z" fill="#5E5CE6"/>
<path d="M54.3794 4.94412C54.1334 4.94352 53.9334 4.74411 53.934 4.49813C53.934 4.41992 53.9543 4.3435 53.9937 4.27544L54.885 2.7315C55.0092 2.51955 55.2827 2.44791 55.4946 2.57269C55.7048 2.69628 55.777 2.96554 55.657 3.17749L54.7656 4.72142C54.6856 4.85994 54.5388 4.94412 54.3794 4.94412Z" fill="white"/>
<path fill-rule="evenodd" clip-rule="evenodd" d="M55.143 2.88182L54.2521 4.42502C54.2392 4.44726 54.2325 4.47202 54.2325 4.49815L54.2325 4.49887C54.2323 4.5785 54.2975 4.64522 54.3798 4.64561C54.433 4.64549 54.4808 4.61774 54.5072 4.57218C54.5072 4.57217 54.5072 4.5722 54.5072 4.57218L55.3977 3.02962C55.4368 2.95973 55.4129 2.87093 55.3433 2.83003L55.3432 2.82995C55.2742 2.78933 55.1842 2.81235 55.143 2.88182ZM55.646 2.31538C55.2913 2.10667 54.8349 2.2267 54.6275 2.58061L54.6271 2.58143L53.7354 4.12589C53.7353 4.12594 53.7353 4.126 53.7353 4.12606C53.6695 4.2398 53.6356 4.36768 53.6355 4.49779C53.6347 4.90983 53.9693 5.24166 54.3787 5.24265L54.3794 5.24265C54.6449 5.24265 54.8906 5.10208 55.0242 4.87074L55.9162 3.32568L55.9168 3.32458C56.1172 2.97074 55.9965 2.52161 55.6461 2.31546" fill="#5E5CE6"/>
<path d="M35.6646 16.2604H32.9828C32.7362 16.2604 32.5356 16.0603 32.5356 15.8132C32.5356 15.5666 32.7356 15.366 32.9828 15.366H35.6646C35.9112 15.366 36.1118 15.566 36.1118 15.8132C36.1112 16.0603 35.9112 16.2604 35.6646 16.2604Z" fill="white"/>
<path fill-rule="evenodd" clip-rule="evenodd" d="M32.9828 15.6646C32.9007 15.6646 32.8341 15.7312 32.8341 15.8132C32.8341 15.8953 32.9008 15.9619 32.9828 15.9619H35.6646C35.7458 15.9619 35.8129 15.896 35.8133 15.8129C35.8131 15.731 35.7465 15.6646 35.6646 15.6646H32.9828ZM32.2371 15.8132C32.2371 15.402 32.5705 15.0675 32.9828 15.0675H35.6646C36.0758 15.0675 36.4103 15.4009 36.4103 15.8132L36.4103 15.8139C36.4093 16.225 36.0765 16.5589 35.6646 16.5589H32.9828C32.5716 16.5589 32.2371 16.2255 32.2371 15.8132Z" fill="#5063EB"/>
<path d="M47.8198 31.0973C47.5726 31.0973 47.372 30.8967 47.372 30.6495V27.9623C47.372 27.7151 47.5726 27.5145 47.8198 27.5145C48.067 27.5145 48.2676 27.7151 48.2676 27.9623V30.6495C48.2676 30.8967 48.067 31.0973 47.8198 31.0973Z" fill="white"/>
<path fill-rule="evenodd" clip-rule="evenodd" d="M47.8197 27.813C47.7374 27.813 47.6704 27.8799 47.6704 27.9622V30.6495C47.6704 30.7318 47.7374 30.7987 47.8197 30.7987C47.902 30.7987 47.9689 30.7318 47.9689 30.6495V27.9622C47.9689 27.8799 47.902 27.813 47.8197 27.813ZM47.0734 27.9622C47.0734 27.5502 47.4076 27.2159 47.8197 27.2159C48.2317 27.2159 48.566 27.5502 48.566 27.9622V30.6495C48.566 31.0615 48.2317 31.3958 47.8197 31.3958C47.4076 31.3958 47.0734 31.0615 47.0734 30.6495V27.9622Z" fill="#167FFD"/>
<path d="M62.6542 16.2634H59.5049C59.2565 16.2634 59.0547 16.0616 59.0547 15.8132C59.0547 15.5648 59.2565 15.363 59.5049 15.363H62.6542C62.9026 15.363 63.1044 15.5648 63.1044 15.8132C63.1038 16.0616 62.9026 16.2634 62.6542 16.2634Z" fill="white"/>
<path fill-rule="evenodd" clip-rule="evenodd" d="M59.505 15.6616C59.4215 15.6616 59.3534 15.7297 59.3534 15.8132C59.3534 15.8967 59.4215 15.9649 59.505 15.9649H62.6544C62.7371 15.9649 62.8056 15.8974 62.806 15.8129C62.8059 15.7295 62.7378 15.6616 62.6544 15.6616H59.505ZM58.7563 15.8132C58.7563 15.4 59.0918 15.0645 59.505 15.0645H62.6544C63.0676 15.0645 63.4031 15.4 63.4031 15.8132L63.4031 15.8139C63.4021 16.226 63.0683 16.5619 62.6544 16.5619H59.505C59.0918 16.5619 58.7563 16.2265 58.7563 15.8132Z" fill="#5063EB"/>
<path d="M57.1045 21.0925L54.7546 23.4424L51.2757 19.9635L53.6256 17.6135L57.1045 21.0925Z" fill="#F59B2B"/>
<path d="M51.268 19.9634L52.443 18.7885L55.9219 22.2674L54.7469 23.4424L51.268 19.9634Z" fill="#EF7C4E"/>
<path d="M40.6581 7L44.6833 7.06388L53.6705 17.9676L51.6262 20.0118L40.7226 11.0252L40.6581 7Z" fill="#DAEBEC"/>
<path d="M40.7226 11.0252L50.0954 18.7509L51.4047 19.8303L51.6262 20.0124L52.6484 18.9903L40.6581 7L40.7226 11.0252Z" fill="#CDDFE2"/>
<path d="M55.6382 16.9198L50.5819 21.9761L48.7281 20.1223L53.7844 15.066L55.6382 16.9198Z" fill="#FFDD54"/>
<path d="M48.721 20.1222L51.2495 17.5938L53.1033 19.4476L50.5748 21.976L48.721 20.1222Z" fill="#F59B2B"/>
<path d="M41.4789 17.6111L43.8289 19.9611L40.3499 23.44L38 21.0901L41.4789 17.6111Z" fill="#65C7ED"/>
<path d="M39.1709 22.2662L42.6499 18.7873L43.8248 19.9622L40.3459 23.4412L39.1709 22.2662Z" fill="#18A8DB"/>
<path d="M54.4413 7L50.4161 7.06388L41.4289 17.9676L43.4732 20.0118L54.3768 11.0246L54.4413 7Z" fill="white"/>
<path d="M54.3766 11.0252L45.0037 18.7509L43.6944 19.8303L43.4729 20.0124L42.4508 18.9903L54.4411 7L54.3766 11.0252Z" fill="#F0F3F6"/>
<path d="M41.3196 15.0636L46.3759 20.1199L44.5221 21.9737L39.4658 16.9174L41.3196 15.0636Z" fill="#5DC2D6"/>
<path d="M41.9907 19.4476L43.8445 17.5938L46.3729 20.1222L44.5191 21.976L41.9907 19.4476Z" fill="#65C7ED"/>
<path d="M41.1249 35.4586C47.7293 34.8556 51.9528 38.7387 51.7235 44.7174C51.496 50.7122 46.9609 55.0234 40.3583 55.645C37.7194 55.8945 35.0841 56.1769 32.4524 56.4921C32.7073 49.7564 32.9616 43.0212 33.2166 36.2867C35.8489 35.978 38.4854 35.7016 41.1249 35.4586ZM40.3428 51.3535C44.0773 51.0012 46.6194 48.5426 46.7526 45.0482C46.8857 41.5585 44.5173 39.4378 40.7822 39.7841C39.8461 39.8713 38.9105 39.9626 37.975 40.0581C37.8287 43.9162 37.6824 47.7736 37.5361 51.6317C38.4711 51.5344 39.4066 51.4418 40.3428 51.3535Z" fill="#2776F7"/>
<path d="M72.4592 45.1658C72.2383 50.9332 68.5164 54.6396 63.1711 54.7596C57.7058 54.8874 54.1929 51.3433 54.4132 45.5616C54.5541 41.872 54.695 38.1823 54.8359 34.4926C56.4849 34.412 58.1351 34.3445 59.7859 34.289C59.645 37.9763 59.5041 41.6642 59.3632 45.3515C59.2462 48.4191 60.8241 50.249 63.3466 50.1917C65.7192 50.1391 67.3844 48.237 67.5014 45.173C67.6423 41.4887 67.7838 37.805 67.9247 34.1212C69.5773 34.1081 71.2305 34.1081 72.8837 34.12C72.7416 37.8026 72.6007 41.4839 72.4592 45.1658Z" fill="#2776F7"/>
<path d="M91.2347 54.8981C86.0035 54.5596 80.7699 54.3494 75.5387 54.2664C75.796 47.5653 76.0527 40.8648 76.31 34.1648C81.5114 34.2598 86.7152 34.4807 91.916 34.8281C91.8616 36.2455 91.8073 37.6629 91.7524 39.0802C88.2048 38.845 84.6566 38.6689 81.1078 38.5513C81.0594 39.8104 81.0111 41.0701 80.9627 42.3293C84.2202 42.4356 87.4782 42.592 90.735 42.7974C90.6837 44.1353 90.6323 45.4727 90.581 46.8106C87.3241 46.6065 84.0661 46.4524 80.8081 46.3473C80.7597 47.6065 80.7114 48.8662 80.663 50.1254C84.2417 50.2388 87.8203 50.4126 91.3977 50.6454C91.3434 52.0628 91.2891 53.4807 91.2347 54.8981Z" fill="#2776F7"/>
<path d="M109.195 56.5639C104.246 55.9656 99.2894 55.482 94.3304 55.1137C94.5871 48.428 94.8444 41.7424 95.1012 35.0568C96.7543 35.1834 98.4069 35.3231 100.059 35.4759C99.8571 40.7215 99.6559 45.9665 99.4541 51.2126C102.759 51.5111 106.061 51.8604 109.36 52.261C109.305 53.6951 109.25 55.1292 109.195 56.5639Z" fill="#2776F7"/>
<path d="M132.992 50.3129C132.769 56.1262 127.918 59.7729 121.937 58.8111C115.956 57.8457 111.423 52.6724 111.647 46.8417C111.872 40.989 116.759 36.9429 122.738 37.9256C128.717 38.9053 133.215 44.4781 132.992 50.3129ZM128.072 49.3833C128.203 45.9563 125.824 42.9634 122.565 42.4308C119.307 41.8977 116.723 44.084 116.591 47.5164C116.461 50.9219 118.851 53.7781 122.11 54.3059C125.369 54.833 127.941 52.7834 128.072 49.3833Z" fill="#2776F7"/>
<path d="M5.38467 39.035C9.89766 38.9359 12.8518 42.3217 12.8494 46.3385C12.8518 50.4139 9.89766 52.5579 5.38467 52.657C3.58341 52.7023 1.78514 52.8665 0 53.1495C0 48.6091 0 44.0686 0 39.5275C1.78514 39.2451 3.58401 39.081 5.38467 39.035ZM5.26227 49.753C7.81221 49.6861 9.48213 48.3147 9.48153 45.9469C9.48213 43.5981 7.81221 41.8787 5.26227 41.9461C4.62344 41.964 3.98522 41.9975 3.34758 42.0452C3.34758 44.6477 3.34758 47.2502 3.34758 49.8521C3.98522 49.8037 4.62344 49.7709 5.26227 49.753Z" fill="#2776F7"/>
<path d="M29.4375 44.5456C29.4399 48.5224 26.263 51.0634 22.1793 51.07C18.0956 51.064 14.9188 48.5224 14.9211 44.5456C14.9188 40.5729 18.095 36.8319 22.1793 36.8384C26.263 36.8324 29.4399 40.5729 29.4375 44.5456ZM26.0911 44.1396C26.0917 41.8058 24.4027 39.9072 22.1787 39.9084C19.9548 39.9078 18.2663 41.8058 18.2663 44.1396C18.2657 46.4614 19.9548 47.9988 22.1787 48C24.4027 47.9994 26.0917 46.4614 26.0911 44.1396Z" fill="#2776F7"/>
<defs>
<linearGradient id="paint0_linear" x1="48" y1="12.5" x2="47.8446" y2="31.4273" gradientUnits="userSpaceOnUse">
<stop stop-color="#5E5CE6"/>
<stop offset="1" stop-color="#1081FE"/>
</linearGradient>
<linearGradient id="paint1_linear" x1="48" y1="12.5" x2="47.8446" y2="31.4273" gradientUnits="userSpaceOnUse">
<stop stop-color="#5E5CE6"/>
<stop offset="1" stop-color="#1081FE"/>
</linearGradient>
</defs>
</svg>
